HIERARCHY
ROOT Hips
{
	OFFSET 5.916593 102.079987 -1.721757
	CHANNELS 6 Xposition Yposition Zposition Xrotation Yrotation Zrotation
	JOINT Chest
	{
		OFFSET 1.467972 13.553352 0.553076
		CHANNELS 3 Xrotation Yrotation Zrotation
		JOINT Chest2
		{
			OFFSET -2.137362 20.326759 6.428157
			CHANNELS 3 Xrotation Yrotation Zrotation
			JOINT Chest3
			{
				OFFSET -0.940621 14.756973 2.041265
				CHANNELS 3 Xrotation Yrotation Zrotation
				JOINT Neck
				{
					OFFSET -1.113827 16.853653 3.651027
					CHANNELS 3 Xrotation Yrotation Zrotation
					JOINT Head
					{
						OFFSET -3.831878 9.231674 3.149688
						CHANNELS 3 Xrotation Yrotation Zrotation
						End Site
						{
							OFFSET -3.807098 9.262619 3.088281
						}
					}
				}
				JOINT LeftCollar
				{
					OFFSET 3.292233 12.565872 5.750167
					CHANNELS 3 Xrotation Yrotation Zrotation
					JOINT LeftUpArm
					{
						OFFSET 15.863443 4.149002 -6.295738
						CHANNELS 3 Xrotation Yrotation Zrotation
						JOINT LeftLowArm
						{
							OFFSET 33.650669 -1.300247 2.381176
							CHANNELS 3 Xrotation Yrotation Zrotation
							JOINT LeftHand
							{
								OFFSET 27.136524 -2.852249 12.506815
								CHANNELS 3 Xrotation Yrotation Zrotation
								End Site
								{
									OFFSET 5.930847 -0.623413 2.733431
								}
							}
						}
					}
				}
				JOINT RightCollar
				{
					OFFSET -5.105496 12.068130 5.486594
					CHANNELS 3 Xrotation Yrotation Zrotation
					JOINT RightUpArm
					{
						OFFSET -16.278917 0.182114 -6.592423
						CHANNELS 3 Xrotation Yrotation Zrotation
						JOINT RightLowArm
						{
							OFFSET -31.400560 -3.649490 11.849915
							CHANNELS 3 Xrotation Yrotation Zrotation
							JOINT RightHand
							{
								OFFSET -26.641167 -3.258774 13.438124
								CHANNELS 3 Xrotation Yrotation Zrotation
								End Site
								{
									OFFSET -5.822693 -0.712219 2.937046
								}
							}
						}
					}
				}
			}
		}
	}
	JOINT LeftUpLeg
	{
		OFFSET 9.778040 -1.135826 1.875889
		CHANNELS 3 Xrotation Yrotation Zrotation
		JOINT LeftLowLeg
		{
			OFFSET -0.179792 -46.889637 6.731996
			CHANNELS 3 Xrotation Yrotation Zrotation
			JOINT LeftFoot
			{
				OFFSET -3.655552 -41.616180 -15.978077
				CHANNELS 3 Xrotation Yrotation Zrotation
				JOINT LeftToe
				{
					OFFSET -7.131969 -15.304836 16.566738
					CHANNELS 3 Xrotation Yrotation Zrotation
					End Site
					{
						OFFSET -1.857339 -1.950407 23.501171
					}
				}
			}
		}
	}
	JOINT RightUpLeg
	{
		OFFSET -9.778066 1.135628 -1.875898
		CHANNELS 3 Xrotation Yrotation Zrotation
		JOINT RightLowLeg
		{
			OFFSET -26.092142 -30.926086 24.633083
			CHANNELS 3 Xrotation Yrotation Zrotation
			JOINT RightFoot
			{
				OFFSET -7.216475 -44.059189 2.699989
				CHANNELS 3 Xrotation Yrotation Zrotation
				JOINT RightToe
				{
					OFFSET -9.226368 -0.283472 21.779593
					CHANNELS 3 Xrotation Yrotation Zrotation
					End Site
					{
						OFFSET -9.757900 14.532673 15.910404
					}
				}
			}
		}
	}
}
MOTION
Frames: 8
Frame Time: 0.033333
9.715243 110.201790 -4.868908 -2.916232 -0.841353 -7.134215 -5.853585 -2.006436 10.067198 -1.728533 -3.721032 2.461844 4.575327 4.669465 -3.617059 8.534683 -0.538645 1.378057 -0.000003 0.000003 0.000001 -5.429372 -5.761096 21.529825 -6.141756 -1.014879 23.133714 -6.737088 -10.365765 5.959946 0.000002 0.000002 -0.000001 -5.331160 3.961565 -22.475970 -13.665525 1.988688 -39.538046 -2.584440 53.695498 -81.781051 0.000002 0.000003 0.000000 8.722399 1.099038 7.131348 -13.288104 4.221593 2.461184 10.372711 -3.801384 10.709070 0.000000 -0.000000 0.000001 -31.975565 15.114056 -47.568210 14.049498 18.820042 48.367578 -9.710649 -9.899262 5.090038 -0.000004 0.000001 0.000000 
9.763716 110.236618 -4.929921 -3.096295 -0.482136 -7.092541 -5.605478 -2.007950 10.136106 -1.926376 -3.924971 2.655077 4.635033 3.937680 -3.919843 9.018994 0.320763 0.991135 -0.000002 0.000004 0.000001 -6.205144 -4.812073 21.916052 -5.676793 -3.168332 22.034511 -6.579002 -12.737945 4.125126 0.000000 0.000002 -0.000002 -5.120700 4.360422 -22.303469 -13.566859 2.452469 -38.949188 -1.854873 54.087284 -84.155587 -0.000001 0.000003 0.000001 8.727485 1.084136 7.178001 -13.004480 4.066675 2.328927 10.221519 -3.888058 10.535152 0.000002 0.000000 -0.000001 -31.638447 14.831580 -48.329182 13.723630 18.993738 48.656492 -9.965875 -10.175368 5.254669 0.000002 0.000000 -0.000002 
9.813800 110.257149 -5.000059 -2.830202 -0.306634 -7.048018 -5.862830 -2.041148 10.184052 -1.183523 -3.880182 2.863846 3.995915 3.676743 -4.034280 8.925246 0.506435 0.985023 -0.000007 0.000005 -0.000002 -7.339753 -3.364628 22.480369 -5.998663 -1.393247 22.482524 -6.359421 -13.049403 4.543409 0.000002 0.000001 0.000001 -4.845576 4.774978 -22.119153 -13.477439 1.932593 -38.947293 1.203764 55.945574 -86.344875 -0.000001 0.000001 0.000001 8.182520 1.014899 7.216396 -12.537184 4.102016 2.114062 9.729463 -3.649839 10.134624 0.000002 0.000000 0.000005 -31.255424 14.531451 -49.569534 12.931834 19.110089 49.404954 -10.392437 -10.606245 5.052051 -0.000004 -0.000001 -0.000000 
9.861578 110.272141 -5.082057 -3.142661 -0.169661 -7.148567 -5.914995 -2.069977 10.247767 -1.318632 -4.323624 3.344221 4.196747 3.444254 -4.405431 9.100107 1.031566 0.831137 -0.000006 0.000004 0.000002 -6.778259 -3.828981 22.869294 -5.718377 -1.133732 21.844528 -5.867506 -14.238126 3.849620 0.000000 -0.000002 -0.000002 -4.759629 4.590411 -22.246833 -12.988974 1.709969 -38.550349 1.621965 55.484618 -88.747885 -0.000001 0.000002 0.000002 8.162616 0.974242 7.405441 -12.225249 4.138862 1.959447 9.718462 -3.648839 10.203464 -0.000000 0.000000 0.000001 -30.879237 14.198192 -50.032481 13.310271 19.169419 49.508732 -10.587737 -10.756914 4.746707 -0.000004 -0.000000 -0.000003 
9.899085 110.283340 -5.151515 -3.225125 0.062867 -7.050205 -5.281382 -2.063671 10.316034 -1.741941 -4.342352 3.297883 4.293941 3.462889 -4.418707 8.786625 0.924303 0.906664 -0.000006 0.000003 -0.000000 -6.578070 -3.772389 22.761435 -5.351108 -1.379463 21.816536 -5.733021 -12.180539 5.451794 0.000001 -0.000005 0.000002 -4.902083 4.039121 -22.300629 -12.576885 1.803394 -38.349825 2.589942 55.570655 -90.589940 -0.000003 -0.000001 0.000001 8.310867 0.970283 7.341188 -12.044906 4.062317 1.840741 9.400552 -3.619694 9.901491 0.000001 0.000001 0.000001 -30.840138 14.174026 -50.118484 13.757540 19.117517 49.230146 -10.392342 -10.534206 4.602809 -0.000004 0.000002 -0.000001 
9.932932 110.298935 -5.223778 -3.089473 -0.398805 -6.982440 -5.334870 -2.074749 10.178889 -2.059381 -4.442175 3.339525 4.918709 4.116462 -4.275698 8.544217 0.826270 0.973154 -0.000004 0.000004 -0.000003 -6.714554 -3.110643 22.852027 -4.992119 -0.598424 21.955792 -5.199504 -13.515361 5.909947 0.000002 -0.000001 -0.000004 -4.682185 3.807457 -21.985576 -12.277914 0.906749 -38.710019 1.793927 54.318483 -92.271553 0.000001 0.000001 0.000001 8.028718 0.943683 7.278243 -12.109663 4.158916 1.789303 9.355312 -3.385034 9.928330 0.000001 -0.000000 0.000001 -31.112082 14.474373 -49.728329 14.042937 19.027459 49.123086 -10.194871 -10.397320 4.372017 -0.000005 -0.000002 0.000000 
9.966810 110.304588 -5.285769 -3.134684 -0.328251 -7.030426 -5.110260 -2.153464 10.484402 -1.223059 -4.220770 3.272307 3.951398 4.076915 -4.234830 8.741398 0.965303 0.811701 -0.000003 0.000006 -0.000000 -6.727106 -3.199626 22.861746 -5.219577 -0.282603 22.057541 -5.363658 -12.735652 6.074929 0.000002 -0.000001 -0.000003 -4.812385 3.727550 -21.834867 -12.493055 0.841436 -38.808319 3.270905 55.290808 -93.414482 0.000001 0.000001 0.000001 8.140805 0.987423 7.280673 -11.807062 4.134113 1.845280 9.176620 -3.734546 9.735157 -0.000000 -0.000000 0.000001 -31.103292 14.401693 -49.520497 13.695624 18.917266 49.169835 -9.905460 -10.405974 5.027231 -0.000005 -0.000000 -0.000001 
9.989328 110.311157 -5.349228 -3.528851 -0.202247 -6.941866 -4.348480 -2.080587 10.433365 -1.587349 -4.450877 3.429813 4.044882 3.790777 -4.499318 9.287857 1.560329 0.551723 -0.000000 0.000002 -0.000000 -6.904429 -3.092914 22.897624 -5.247093 0.120731 22.188655 -5.198210 -12.778495 5.876939 -0.000000 0.000002 -0.000002 -4.748210 3.953100 -21.565475 -12.414968 0.827323 -38.570614 3.206173 55.185528 -93.354049 0.000001 0.000001 0.000002 8.303166 0.892798 7.257999 -11.666742 3.997448 1.742760 9.404881 -3.921510 9.889857 0.000001 0.000000 0.000003 -31.058813 14.433390 -49.117813 14.391805 18.982687 48.731313 -9.931828 -10.340871 4.876699 -0.000002 -0.000002 0.000003 
